<svg xmlns="http://www.w3.org/2000/svg" xml:lang="en" height="319.9359999999999pt" width="1438.7692pt" viewBox="-51.66920000000001 -98.87599999999995 1438.7692 319.9359999999999"><path d="M 0.0,-0.0 L 12.149999999999999,-0.0 L 24.299999999999997,-0.0" style="stroke:black;fill:none;stroke-width:2;stroke-linecap:round;stroke-linejoin:round;" /><path d="M 0.0,-0.0 L 1.487945860964034e-15,-24.299999999999997 L 2.975891721928068e-15,-48.599999999999994" style="stroke:black;fill:none;stroke-width:2;stroke-linecap:round;stroke-linejoin:round;" /><path d="M 40.5,80.35199999999999 L 113.39999999999999,80.35199999999999 L 113.39999999999999,-16.848 L 40.5,-16.848 L 40.5,80.35199999999999" style="stroke:black;fill:none;stroke-width:2;stroke-linecap:round;stroke-linejoin:round;" /><path d="M 40.5,57.833999999999996 L 51.84,63.504 L 40.5,69.17399999999999" style="stroke:black;fill:none;stroke-width:2;stroke-linecap:round;stroke-linejoin:round;" /><path d="M 40.5,63.504 L 24.299999999999997,63.504" style="stroke:black;fill:none;stroke-width:2;stroke-linecap:round;stroke-linejoin:round;" /><path d="M 40.5,-0.0 L 24.299999999999997,-0.0" style="stroke:black;fill:none;stroke-width:2;stroke-linecap:round;stroke-linejoin:round;" /><path d="M 113.39999999999999,-0.0 L 129.6,-0.0" style="stroke:black;fill:none;stroke-width:2;stroke-linecap:round;stroke-linejoin:round;" /><path d="M 24.299999999999997,63.504 L 24.299999999999994,87.804 L 24.29999999999999,112.104" style="stroke:black;fill:none;stroke-width:2;stroke-linecap:round;stroke-linejoin:round;" /><path d="M 24.29999999999999,112.104 L -7.194245199571014e-15,112.104 L -24.300000000000008,112.104" style="stroke:black;fill:none;stroke-width:2;stroke-linecap:round;stroke-linejoin:round;" /><path d="M 129.6,-0.0 L 129.59999999999997,97.19999999999999 L 129.59999999999997,194.39999999999998" style="stroke:black;fill:none;stroke-width:2;stroke-linecap:round;stroke-linejoin:round;" /><path d="M 129.59999999999997,187.92 L 129.59999999999997,187.92" style="stroke:black;fill:none;stroke-width:2;stroke-linecap:round;stroke-linejoin:round;" /><path d="M 129.59999999999997 192.39999999999998 L 127.16999999999996 187.91999999999996 L 132.02999999999997 187.91999999999996 Z" style="stroke:black;fill:black;stroke-linecap:butt;stroke-linejoin:miter;" /><path d="M 2.975891721928068e-15,-48.599999999999994 L 12.150000000000002,-48.599999999999994 L 24.299999999999997,-48.599999999999994" style="stroke:black;fill:none;stroke-width:2;stroke-linecap:round;stroke-linejoin:round;" /><path d="M 24.299999999999997,-48.599999999999994 L 40.5,-48.599999999999994 L 56.699999999999996,-48.599999999999994" style="stroke:black;fill:none;stroke-width:2;stroke-linecap:round;stroke-linejoin:round;" /><path d="M 106.92,-64.476 L 90.72,-64.476 L 90.25714285714287,-64.46938775510205 L 89.79428571428572,-64.44955102040817 L 89.33142857142857,-64.41648979591837 L 88.86857142857144,-64.37020408163265 L 88.4057142857143,-64.31069387755102 L 87.94285714285716,-64.23795918367347 L 87.48000000000002,-64.152 L 87.01714285714286,-64.05281632653062 L 86.55428571428573,-63.9404081632653 L 86.09142857142858,-63.81477551020408 L 85.62857142857143,-63.67591836734694 L 85.1657142857143,-63.52383673469387 L 84.70285714285716,-63.35853061224489 L 84.24000000000001,-63.17999999999999 L 83.77714285714288,-62.988244897959184 L 83.31428571428572,-62.783265306122445 L 82.85142857142857,-62.56506122448979 L 82.38857142857144,-62.333632653061215 L 81.92571428571429,-62.08897959183673 L 81.46285714285715,-61.83110204081632 L 81.00000000000001,-61.559999999999995 L 80.53714285714287,-61.27567346938775 L 80.07428571428571,-60.97812244897958 L 79.61142857142858,-60.6673469387755 L 79.14857142857143,-60.343346938775504 L 78.6857142857143,-60.006122448979596 L 78.22285714285715,-59.65567346938776 L 77.76,-59.292 L 77.29714285714287,-58.91510204081632 L 76.83428571428573,-58.52497959183673 L 76.37142857142858,-58.12163265306122 L 75.90857142857145,-57.70506122448979 L 75.44571428571429,-57.27526530612245 L 74.98285714285714,-56.832244897959185 L 74.52000000000001,-56.376 L 74.05714285714286,-55.90653061224489 L 73.59428571428572,-55.42383673469388 L 73.13142857142859,-54.92791836734693 L 72.66857142857144,-54.41877551020408 L 72.20571428571428,-53.8964081632653 L 71.74285714285715,-53.36081632653061 L 71.28,-52.812 L 70.81714285714285,-52.24995918367347 L 70.35428571428572,-51.674693877551015 L 69.89142857142858,-51.08620408163265 L 69.42857142857144,-50.484489795918364 L 68.9657142857143,-49.86955102040816 L 68.50285714285715,-49.241387755102046 L 68.04,-48.599999999999994 L 68.04,-48.599999999999994 L 68.50285714285715,-47.95861224489795 L 68.9657142857143,-47.330448979591836 L 69.42857142857144,-46.71551020408163 L 69.89142857142858,-46.113795918367344 L 70.35428571428572,-45.52530612244898 L 70.81714285714285,-44.95004081632653 L 71.28,-44.38799999999999 L 71.74285714285715,-43.839183673469385 L 72.20571428571428,-43.30359183673469 L 72.66857142857144,-42.78122448979591 L 73.13142857142859,-42.27208163265306 L 73.59428571428572,-41.77616326530612 L 74.05714285714286,-41.293469387755096 L 74.52000000000001,-40.82399999999999 L 74.98285714285714,-40.36775510204081 L 75.44571428571429,-39.92473469387755 L 75.90857142857145,-39.4949387755102 L 76.37142857142858,-39.07836734693877 L 76.83428571428573,-38.675020408163256 L 77.29714285714287,-38.284897959183674 L 77.76,-37.907999999999994 L 78.22285714285715,-37.54432653061224 L 78.6857142857143,-37.1938775510204 L 79.14857142857143,-36.85665306122448 L 79.61142857142858,-36.53265306122449 L 80.07428571428571,-36.221877551020405 L 80.53714285714287,-35.92432653061224 L 81.00000000000001,-35.63999999999999 L 81.46285714285715,-35.36889795918367 L 81.92571428571429,-35.11102040816326 L 82.38857142857144,-34.866367346938766 L 82.85142857142857,-34.63493877551019 L 83.31428571428572,-34.416734693877544 L 83.77714285714288,-34.211755102040804 L 84.24000000000001,-34.019999999999996 L 84.70285714285716,-33.8414693877551 L 85.1657142857143,-33.67616326530611 L 85.62857142857143,-33.52408163265305 L 86.09142857142858,-33.38522448979591 L 86.55428571428573,-33.25959183673468 L 87.01714285714286,-33.14718367346938 L 87.48,-33.047999999999995 L 87.94285714285715,-32.96204081632653 L 88.40571428571428,-32.88930612244897 L 88.86857142857143,-32.82979591836734 L 89.33142857142857,-32.78351020408163 L 89.79428571428572,-32.75044897959183 L 90.25714285714287,-32.730612244897955 L 90.72,-32.72399999999999 L 106.92,-32.72399999999999 L 106.92,-32.72399999999999 L 106.29792,-33.37199999999999 L 105.70176000000001,-34.019999999999996 L 105.13152,-34.66799999999999 L 104.5872,-35.315999999999995 L 104.0688,-35.96399999999999 L 103.57632000000001,-36.61199999999999 L 103.10976000000001,-37.25999999999999 L 102.66911999999999,-37.90799999999999 L 102.2544,-38.55599999999999 L 101.8656,-39.203999999999986 L 101.50272,-39.85199999999999 L 101.16576,-40.49999999999999 L 100.85472,-41.14799999999999 L 100.5696,-41.79599999999999 L 100.3104,-42.443999999999996 L 100.07712,-43.09199999999999 L 99.86976,-43.739999999999995 L 99.68832,-44.38799999999999 L 99.5328,-45.035999999999994 L 99.4032,-45.684 L 99.29952,-46.331999999999994 L 99.22176,-46.97999999999999 L 99.16992,-47.62799999999999 L 99.14399999999999,-48.27599999999999 L 99.14399999999999,-48.92399999999999 L 99.16992,-49.57199999999999 L 99.22176,-50.21999999999999 L 99.29952,-50.867999999999995 L 99.4032,-51.51599999999999 L 99.5328,-52.163999999999994 L 99.68832,-52.812 L 99.86976,-53.459999999999994 L 100.07712,-54.108 L 100.3104,-54.75599999999999 L 100.5696,-55.403999999999996 L 100.85472,-56.052 L 101.16576,-56.699999999999996 L 101.50272,-57.348 L 101.8656,-57.99599999999999 L 102.2544,-58.64399999999999 L 102.66911999999999,-59.291999999999994 L 103.10976000000001,-59.93999999999999 L 103.57632000000001,-60.587999999999994 L 104.0688,-61.236 L 104.5872,-61.88399999999999 L 105.13152,-62.532 L 105.70176000000001,-63.17999999999999 L 106.29792,-63.827999999999996 L 106.92,-64.476" style="stroke:black;fill:none;stroke-width:2;stroke-linecap:round;stroke-linejoin:round;" /><path d="M 111.78,-64.47599999999998 L 111.15792000000002,-63.82799999999999 L 110.56176,-63.179999999999986 L 109.99152,-62.532 L 109.4472,-61.88399999999999 L 108.9288,-61.236 L 108.43632,-60.587999999999994 L 107.96976000000001,-59.93999999999999 L 107.52912,-59.291999999999994 L 107.1144,-58.64399999999999 L 106.72560000000001,-57.99599999999999 L 106.36272,-57.348 L 106.02576,-56.69999999999999 L 105.71472000000001,-56.05199999999999 L 105.42960000000001,-55.403999999999996 L 105.17040000000001,-54.75599999999999 L 104.93712000000001,-54.108 L 104.72976,-53.459999999999994 L 104.54832,-52.812 L 104.39280000000001,-52.163999999999994 L 104.2632,-51.51599999999999 L 104.15952,-50.867999999999995 L 104.08176,-50.21999999999999 L 104.02992,-49.57199999999999 L 104.00399999999999,-48.92399999999999 L 104.00399999999999,-48.27599999999999 L 104.02992,-47.62799999999999 L 104.08176,-46.97999999999999 L 104.15952,-46.331999999999994 L 104.2632,-45.684 L 104.39280000000001,-45.035999999999994 L 104.54832,-44.38799999999999 L 104.72976,-43.739999999999995 L 104.93712000000001,-43.09199999999999 L 105.17040000000001,-42.443999999999996 L 105.42960000000001,-41.79599999999999 L 105.71472000000001,-41.14799999999999 L 106.02576,-40.49999999999999 L 106.36272,-39.85199999999999 L 106.72560000000001,-39.203999999999986 L 107.1144,-38.55599999999999 L 107.52912,-37.90799999999999 L 107.96976000000001,-37.25999999999999 L 108.43632,-36.61199999999999 L 108.9288,-35.96399999999999 L 109.4472,-35.315999999999995 L 109.99152,-34.66799999999999 L 110.56176,-34.019999999999996 L 111.15792000000002,-33.37199999999999 L 111.78,-32.72399999999999" style="stroke:black;fill:none;stroke-width:2;stroke-linecap:round;stroke-linejoin:round;" /><path d="M 123.12,-56.69999999999999 L 106.02576,-56.69999999999999" style="stroke:black;fill:none;stroke-width:2;stroke-linecap:round;stroke-linejoin:round;" /><path d="M 123.12,-40.49999999999999 L 106.02576,-40.49999999999999" style="stroke:black;fill:none;stroke-width:2;stroke-linecap:round;stroke-linejoin:round;" /><path d="M 123.12,-48.59999999999999 M 68.04,-48.599999999999994 L 56.699999999999996,-48.599999999999994" style="stroke:black;fill:none;stroke-width:2;stroke-linecap:round;stroke-linejoin:round;" /><path d="M 123.12,-40.49999999999999 L 126.36,-40.49999999999999 L 129.6,-40.49999999999999" style="stroke:black;fill:none;stroke-width:2;stroke-linecap:round;stroke-linejoin:round;" /><path d="M 129.6,-40.49999999999999 L 129.6,-20.249999999999996 L 129.59999999999997,-0.0" style="stroke:black;fill:none;stroke-width:2;stroke-linecap:round;stroke-linejoin:round;" /><path d="M 123.12,-56.69999999999999 L 139.32000000000002,-56.69999999999999 L 155.52,-56.69999999999999" style="stroke:black;fill:none;stroke-width:2;stroke-linecap:round;stroke-linejoin:round;" /><path d="M 129.6,-0.0 L 153.9,-0.0 L 178.2,-0.0" style="stroke:black;fill:none;stroke-width:2;stroke-linecap:round;stroke-linejoin:round;" /><path d="M 194.39999999999998,80.35199999999999 L 267.3,80.35199999999999 L 267.3,-16.848 L 194.39999999999998,-16.848 L 194.39999999999998,80.35199999999999" style="stroke:black;fill:none;stroke-width:2;stroke-linecap:round;stroke-linejoin:round;" /><path d="M 194.39999999999998,57.833999999999996 L 205.73999999999998,63.504 L 194.39999999999998,69.17399999999999" style="stroke:black;fill:none;stroke-width:2;stroke-linecap:round;stroke-linejoin:round;" /><path d="M 194.39999999999998,63.504 L 178.2,63.504" style="stroke:black;fill:none;stroke-width:2;stroke-linecap:round;stroke-linejoin:round;" /><path d="M 194.39999999999998,-0.0 L 178.2,-0.0" style="stroke:black;fill:none;stroke-width:2;stroke-linecap:round;stroke-linejoin:round;" /><path d="M 267.3,-0.0 L 283.5,-0.0" style="stroke:black;fill:none;stroke-width:2;stroke-linecap:round;stroke-linejoin:round;" /><path d="M 178.2,63.504 L 178.2,87.804 L 178.2,112.104" style="stroke:black;fill:none;stroke-width:2;stroke-linecap:round;stroke-linejoin:round;" /><path d="M 283.5,-0.0 L 283.5,97.19999999999999 L 283.49999999999994,194.39999999999998" style="stroke:black;fill:none;stroke-width:2;stroke-linecap:round;stroke-linejoin:round;" /><path d="M 283.49999999999994,187.92 L 283.49999999999994,187.92" style="stroke:black;fill:none;stroke-width:2;stroke-linecap:round;stroke-linejoin:round;" /><path d="M 283.49999999999994 192.39999999999998 L 281.06999999999994 187.91999999999996 L 285.92999999999995 187.91999999999996 Z" style="stroke:black;fill:black;stroke-linecap:butt;stroke-linejoin:miter;" /><path d="M 283.5,-0.0 L 307.8,-0.0 L 332.09999999999997,-0.0" style="stroke:black;fill:none;stroke-width:2;stroke-linecap:round;stroke-linejoin:round;" /><path d="M 348.3,80.35199999999999 L 421.2,80.35199999999999 L 421.2,-16.848 L 348.3,-16.848 L 348.3,80.35199999999999" style="stroke:black;fill:none;stroke-width:2;stroke-linecap:round;stroke-linejoin:round;" /><path d="M 348.3,57.833999999999996 L 359.64,63.504 L 348.3,69.17399999999999" style="stroke:black;fill:none;stroke-width:2;stroke-linecap:round;stroke-linejoin:round;" /><path d="M 348.3,63.504 L 332.09999999999997,63.504" style="stroke:black;fill:none;stroke-width:2;stroke-linecap:round;stroke-linejoin:round;" /><path d="M 348.3,-0.0 L 332.09999999999997,-0.0" style="stroke:black;fill:none;stroke-width:2;stroke-linecap:round;stroke-linejoin:round;" /><path d="M 421.2,-0.0 L 437.4,-0.0" style="stroke:black;fill:none;stroke-width:2;stroke-linecap:round;stroke-linejoin:round;" /><path d="M 332.09999999999997,63.504 L 332.09999999999997,87.804 L 332.09999999999997,112.104" style="stroke:black;fill:none;stroke-width:2;stroke-linecap:round;stroke-linejoin:round;" /><path d="M 437.4,-0.0 L 437.4,97.19999999999999 L 437.3999999999999,194.39999999999998" style="stroke:black;fill:none;stroke-width:2;stroke-linecap:round;stroke-linejoin:round;" /><path d="M 437.3999999999999,187.92 L 437.3999999999999,187.92" style="stroke:black;fill:none;stroke-width:2;stroke-linecap:round;stroke-linejoin:round;" /><path d="M 437.3999999999999 192.39999999999998 L 434.9699999999999 187.91999999999996 L 439.8299999999999 187.91999999999996 Z" style="stroke:black;fill:black;stroke-linecap:butt;stroke-linejoin:miter;" /><path d="M 155.52,-56.69999999999999 L 243.81,-56.69999999999999 L 332.09999999999997,-56.69999999999999" style="stroke:black;fill:none;stroke-width:2;stroke-linecap:round;stroke-linejoin:round;" /><path d="M 332.09999999999997,-56.69999999999999 L 348.3,-56.69999999999999 L 364.5,-56.69999999999999" style="stroke:black;fill:none;stroke-width:2;stroke-linecap:round;stroke-linejoin:round;" /><path d="M 414.72,-72.576 L 398.52,-72.576 L 398.0571428571429,-72.56938775510203 L 397.5942857142857,-72.54955102040815 L 397.13142857142856,-72.51648979591835 L 396.66857142857145,-72.47020408163264 L 396.2057142857143,-72.410693877551 L 395.74285714285713,-72.33795918367346 L 395.28000000000003,-72.25199999999998 L 394.81714285714287,-72.1528163265306 L 394.3542857142857,-72.0404081632653 L 393.8914285714286,-71.91477551020407 L 393.42857142857144,-71.77591836734693 L 392.9657142857143,-71.62383673469387 L 392.5028571428572,-71.45853061224489 L 392.04,-71.27999999999999 L 391.5771428571428,-71.08824489795919 L 391.1142857142857,-70.88326530612244 L 390.65142857142854,-70.66506122448979 L 390.1885714285714,-70.43363265306122 L 389.7257142857143,-70.18897959183673 L 389.2628571428571,-69.93110204081631 L 388.79999999999995,-69.66 L 388.33714285714285,-69.37567346938775 L 387.8742857142857,-69.07812244897958 L 387.4114285714286,-68.7673469387755 L 386.9485714285714,-68.4433469387755 L 386.48571428571427,-68.10612244897959 L 386.02285714285716,-67.75567346938774 L 385.56,-67.39199999999998 L 385.09714285714284,-67.01510204081632 L 384.63428571428574,-66.62497959183672 L 384.1714285714286,-66.22163265306122 L 383.7085714285714,-65.80506122448979 L 383.2457142857143,-65.37526530612243 L 382.78285714285715,-64.93224489795917 L 382.32,-64.47599999999998 L 381.8571428571429,-64.00653061224489 L 381.39428571428573,-63.52383673469387 L 380.93142857142857,-63.02791836734693 L 380.46857142857147,-62.51877551020408 L 380.00571428571425,-61.9964081632653 L 379.54285714285714,-61.460816326530605 L 379.08,-60.911999999999985 L 378.6171428571429,-60.34995918367346 L 378.15428571428566,-59.77469387755101 L 377.6914285714286,-59.186204081632646 L 377.2285714285714,-58.58448979591836 L 376.7657142857143,-57.969551020408154 L 376.30285714285714,-57.34138775510203 L 375.84,-56.69999999999999 L 375.84,-56.69999999999999 L 376.30285714285714,-56.058612244897944 L 376.7657142857143,-55.43044897959182 L 377.2285714285714,-54.815510204081626 L 377.6914285714286,-54.21379591836734 L 378.15428571428566,-53.62530612244897 L 378.6171428571429,-53.050040816326515 L 379.08,-52.487999999999985 L 379.54285714285714,-51.93918367346937 L 380.00571428571425,-51.403591836734684 L 380.46857142857147,-50.881224489795905 L 380.93142857142857,-50.37208163265305 L 381.39428571428573,-49.87616326530611 L 381.8571428571429,-49.39346938775509 L 382.32,-48.923999999999985 L 382.78285714285715,-48.467755102040805 L 383.2457142857143,-48.02473469387754 L 383.7085714285714,-47.59493877551019 L 384.1714285714286,-47.17836734693876 L 384.63428571428574,-46.77502040816326 L 385.09714285714284,-46.38489795918366 L 385.56,-46.00799999999999 L 386.02285714285716,-45.64432653061223 L 386.48571428571427,-45.293877551020394 L 386.9485714285714,-44.95665306122448 L 387.4114285714286,-44.632653061224474 L 387.8742857142857,-44.32187755102039 L 388.33714285714285,-44.02432653061223 L 388.79999999999995,-43.73999999999999 L 389.2628571428571,-43.46889795918366 L 389.7257142857143,-43.21102040816324 L 390.1885714285714,-42.96636734693876 L 390.65142857142854,-42.734938775510194 L 391.1142857142857,-42.51673469387753 L 391.5771428571428,-42.3117551020408 L 392.04,-42.11999999999998 L 392.5028571428571,-41.94146938775509 L 392.9657142857142,-41.77616326530611 L 393.4285714285714,-41.624081632653045 L 393.89142857142855,-41.485224489795904 L 394.35428571428565,-41.35959183673468 L 394.8171428571428,-41.24718367346937 L 395.28000000000003,-41.14799999999998 L 395.74285714285713,-41.06204081632651 L 396.2057142857143,-40.98930612244896 L 396.66857142857145,-40.92979591836733 L 397.13142857142856,-40.88351020408162 L 397.5942857142857,-40.850448979591825 L 398.0571428571429,-40.83061224489794 L 398.52,-40.823999999999984 L 414.72,-40.823999999999984 L 414.72,-40.823999999999984 L 414.09791999999993,-41.47199999999999 L 413.50176,-42.11999999999998 L 412.93152,-42.76799999999999 L 412.38719999999995,-43.41599999999999 L 411.86879999999996,-44.063999999999986 L 411.37631999999996,-44.71199999999998 L 410.90976,-45.35999999999998 L 410.46912000000003,-46.00799999999998 L 410.0544,-46.655999999999985 L 409.6656,-47.30399999999998 L 409.30271999999997,-47.951999999999984 L 408.96576,-48.59999999999998 L 408.65472,-49.24799999999998 L 408.36959999999993,-49.89599999999999 L 408.11039999999997,-50.54399999999998 L 407.87712,-51.191999999999986 L 407.66976,-51.83999999999999 L 407.48832,-52.487999999999985 L 407.33279999999996,-53.13599999999999 L 407.2032,-53.783999999999985 L 407.09952,-54.43199999999999 L 407.02176,-55.079999999999984 L 406.96992,-55.72799999999998 L 406.944,-56.37599999999998 L 406.944,-57.02399999999999 L 406.96992,-57.67199999999998 L 407.02176,-58.319999999999986 L 407.09952,-58.96799999999998 L 407.2032,-59.615999999999985 L 407.33279999999996,-60.26399999999999 L 407.48832,-60.911999999999985 L 407.66976,-61.55999999999999 L 407.87712,-62.20799999999999 L 408.11039999999997,-62.85599999999999 L 408.36959999999993,-63.50399999999999 L 408.65472,-64.15199999999999 L 408.96576,-64.79999999999998 L 409.30271999999997,-65.44799999999998 L 409.6656,-66.09599999999999 L 410.0544,-66.74399999999999 L 410.46912000000003,-67.39199999999998 L 410.90976,-68.03999999999999 L 411.37631999999996,-68.68799999999999 L 411.86879999999996,-69.33599999999998 L 412.38719999999995,-69.98399999999998 L 412.93152,-70.63199999999999 L 413.50176,-71.27999999999999 L 414.09791999999993,-71.92799999999998 L 414.72,-72.576" style="stroke:black;fill:none;stroke-width:2;stroke-linecap:round;stroke-linejoin:round;" /><path d="M 419.58,-72.576 L 418.95791999999994,-71.92799999999998 L 418.36176,-71.27999999999999 L 417.79152,-70.63199999999999 L 417.24719999999996,-69.98399999999998 L 416.7288,-69.33599999999998 L 416.23632,-68.68799999999999 L 415.76975999999996,-68.03999999999999 L 415.32912,-67.39199999999998 L 414.9144,-66.74399999999999 L 414.5256,-66.09599999999999 L 414.16272,-65.44799999999998 L 413.82576,-64.79999999999998 L 413.51472,-64.15199999999999 L 413.22959999999995,-63.50399999999999 L 412.9704,-62.85599999999999 L 412.73712,-62.20799999999999 L 412.52976,-61.55999999999999 L 412.34832,-60.911999999999985 L 412.1928,-60.26399999999999 L 412.0632,-59.615999999999985 L 411.95952,-58.96799999999998 L 411.88176,-58.319999999999986 L 411.82992,-57.67199999999998 L 411.80400000000003,-57.02399999999999 L 411.80400000000003,-56.37599999999998 L 411.82992,-55.72799999999998 L 411.88176,-55.079999999999984 L 411.95952,-54.43199999999999 L 412.0632,-53.783999999999985 L 412.1928,-53.13599999999999 L 412.34832,-52.487999999999985 L 412.52976,-51.83999999999999 L 412.73712,-51.191999999999986 L 412.9704,-50.54399999999998 L 413.22959999999995,-49.89599999999999 L 413.51472,-49.24799999999998 L 413.82576,-48.59999999999998 L 414.16272,-47.951999999999984 L 414.5256,-47.30399999999998 L 414.9144,-46.655999999999985 L 415.32912,-46.00799999999998 L 415.76975999999996,-45.35999999999998 L 416.23632,-44.71199999999998 L 416.7288,-44.06399999999998 L 417.24719999999996,-43.41599999999998 L 417.79152,-42.76799999999998 L 418.36176,-42.119999999999976 L 418.95791999999994,-41.47199999999998 L 419.58,-40.82399999999998" style="stroke:black;fill:none;stroke-width:2;stroke-linecap:round;stroke-linejoin:round;" /><path d="M 430.92,-64.79999999999998 L 413.82576,-64.79999999999998" style="stroke:black;fill:none;stroke-width:2;stroke-linecap:round;stroke-linejoin:round;" /><path d="M 430.92,-48.59999999999998 L 413.82576,-48.59999999999998" style="stroke:black;fill:none;stroke-width:2;stroke-linecap:round;stroke-linejoin:round;" /><path d="M 430.92,-56.69999999999998 M 375.84,-56.69999999999999 L 364.5,-56.69999999999999" style="stroke:black;fill:none;stroke-width:2;stroke-linecap:round;stroke-linejoin:round;" /><path d="M 430.92,-48.59999999999998 L 434.15999999999997,-48.59999999999998 L 437.4,-48.59999999999998" style="stroke:black;fill:none;stroke-width:2;stroke-linecap:round;stroke-linejoin:round;" /><path d="M 437.4,-48.59999999999998 L 437.4,-24.29999999999999 L 437.4,-0.0" style="stroke:black;fill:none;stroke-width:2;stroke-linecap:round;stroke-linejoin:round;" /><path d="M 430.92,-64.79999999999998 L 447.12,-64.79999999999998 L 463.32,-64.79999999999998" style="stroke:black;fill:none;stroke-width:2;stroke-linecap:round;stroke-linejoin:round;" /><path d="M 437.4,-0.0 L 461.7,-0.0 L 486.0,-0.0" style="stroke:black;fill:none;stroke-width:2;stroke-linecap:round;stroke-linejoin:round;" /><path d="M 502.2,80.35199999999999 L 575.1,80.35199999999999 L 575.1,-16.848 L 502.2,-16.848 L 502.2,80.35199999999999" style="stroke:black;fill:none;stroke-width:2;stroke-linecap:round;stroke-linejoin:round;" /><path d="M 502.2,57.833999999999996 L 513.54,63.504 L 502.2,69.17399999999999" style="stroke:black;fill:none;stroke-width:2;stroke-linecap:round;stroke-linejoin:round;" /><path d="M 502.2,63.504 L 486.0,63.504" style="stroke:black;fill:none;stroke-width:2;stroke-linecap:round;stroke-linejoin:round;" /><path d="M 502.2,-0.0 L 486.0,-0.0" style="stroke:black;fill:none;stroke-width:2;stroke-linecap:round;stroke-linejoin:round;" /><path d="M 575.1,-0.0 L 591.3,-0.0" style="stroke:black;fill:none;stroke-width:2;stroke-linecap:round;stroke-linejoin:round;" /><path d="M 486.0,63.504 L 486.0,87.804 L 486.0,112.104" style="stroke:black;fill:none;stroke-width:2;stroke-linecap:round;stroke-linejoin:round;" /><path d="M 591.3,-0.0 L 591.3,97.19999999999999 L 591.3,194.39999999999998" style="stroke:black;fill:none;stroke-width:2;stroke-linecap:round;stroke-linejoin:round;" /><path d="M 591.3,187.92 L 591.3,187.92" style="stroke:black;fill:none;stroke-width:2;stroke-linecap:round;stroke-linejoin:round;" /><path d="M 591.3 192.39999999999998 L 588.87 187.91999999999996 L 593.7299999999999 187.91999999999996 Z" style="stroke:black;fill:black;stroke-linecap:butt;stroke-linejoin:miter;" /><path d="M 463.32,-64.79999999999998 L 474.65999999999997,-64.79999999999998 L 486.0,-64.79999999999998" style="stroke:black;fill:none;stroke-width:2;stroke-linecap:round;stroke-linejoin:round;" /><path d="M 486.0,-64.79999999999998 L 502.2,-64.79999999999998 L 518.4,-64.79999999999998" style="stroke:black;fill:none;stroke-width:2;stroke-linecap:round;stroke-linejoin:round;" /><path d="M 568.62,-80.67599999999997 L 552.42,-80.67599999999997 L 551.9571428571428,-80.66938775510202 L 551.4942857142858,-80.64955102040815 L 551.0314285714285,-80.61648979591835 L 550.5685714285714,-80.57020408163264 L 550.1057142857143,-80.510693877551 L 549.6428571428571,-80.43795918367346 L 549.18,-80.35199999999998 L 548.7171428571429,-80.25281632653059 L 548.2542857142856,-80.14040816326529 L 547.7914285714286,-80.01477551020406 L 547.3285714285714,-79.87591836734691 L 546.8657142857143,-79.72383673469386 L 546.4028571428571,-79.55853061224488 L 545.94,-79.37999999999997 L 545.4771428571428,-79.18824489795917 L 545.0142857142857,-78.98326530612243 L 544.5514285714286,-78.76506122448977 L 544.0885714285714,-78.5336326530612 L 543.6257142857143,-78.28897959183672 L 543.1628571428572,-78.03110204081631 L 542.6999999999999,-77.75999999999998 L 542.2371428571429,-77.47567346938773 L 541.7742857142857,-77.17812244897958 L 541.3114285714286,-76.8673469387755 L 540.8485714285714,-76.54334693877549 L 540.3857142857144,-76.20612244897957 L 539.9228571428571,-75.85567346938774 L 539.4599999999999,-75.49199999999999 L 538.9971428571429,-75.1151020408163 L 538.5342857142857,-74.72497959183671 L 538.0714285714286,-74.3216326530612 L 537.6085714285714,-73.90506122448977 L 537.1457142857142,-73.47526530612244 L 536.6828571428571,-73.03224489795917 L 536.22,-72.576 L 535.7571428571428,-72.10653061224488 L 535.2942857142857,-71.62383673469385 L 534.8314285714285,-71.12791836734691 L 534.3685714285714,-70.61877551020406 L 533.9057142857142,-70.09640816326528 L 533.4428571428572,-69.5608163265306 L 532.9799999999999,-69.01199999999997 L 532.5171428571429,-68.44995918367346 L 532.0542857142857,-67.874693877551 L 531.5914285714285,-67.28620408163263 L 531.1285714285714,-66.68448979591835 L 530.6657142857143,-66.06955102040814 L 530.202857142857,-65.44138775510201 L 529.74,-64.79999999999998 L 529.74,-64.79999999999998 L 530.202857142857,-64.15861224489794 L 530.6657142857143,-63.53044897959182 L 531.1285714285714,-62.91551020408162 L 531.5914285714285,-62.313795918367326 L 532.0542857142857,-61.72530612244896 L 532.5171428571429,-61.150040816326516 L 532.9799999999999,-60.58799999999998 L 533.4428571428572,-60.039183673469374 L 533.9057142857142,-59.50359183673467 L 534.3685714285714,-58.9812244897959 L 534.8314285714285,-58.472081632653044 L 535.2942857142857,-57.976163265306106 L 535.7571428571428,-57.49346938775508 L 536.22,-57.02399999999998 L 536.6828571428571,-56.5677551020408 L 537.1457142857142,-56.12473469387753 L 537.6085714285714,-55.69493877551018 L 538.0714285714286,-55.27836734693875 L 538.5342857142857,-54.87502040816324 L 538.9971428571429,-54.484897959183655 L 539.4599999999999,-54.10799999999998 L 539.9228571428571,-53.74432653061223 L 540.3857142857144,-53.39387755102039 L 540.8485714285714,-53.05665306122446 L 541.3114285714286,-52.73265306122447 L 541.7742857142857,-52.42187755102039 L 542.2371428571429,-52.12432653061222 L 542.6999999999999,-51.83999999999998 L 543.1628571428572,-51.56889795918365 L 543.6257142857143,-51.311020408163245 L 544.0885714285714,-51.06636734693875 L 544.5514285714286,-50.83493877551018 L 545.0142857142857,-50.616734693877525 L 545.4771428571428,-50.41175510204079 L 545.94,-50.21999999999998 L 546.4028571428571,-50.04146938775508 L 546.8657142857143,-49.8761632653061 L 547.3285714285714,-49.72408163265304 L 547.7914285714286,-49.5852244897959 L 548.2542857142856,-49.45959183673467 L 548.7171428571429,-49.34718367346936 L 549.18,-49.247999999999976 L 549.6428571428571,-49.16204081632651 L 550.1057142857143,-49.08930612244895 L 550.5685714285714,-49.02979591836733 L 551.0314285714285,-48.98351020408161 L 551.4942857142858,-48.95044897959181 L 551.9571428571428,-48.93061224489794 L 552.42,-48.92399999999998 L 568.62,-48.92399999999998 L 568.62,-48.92399999999998 L 567.9979199999999,-49.571999999999974 L 567.40176,-50.21999999999998 L 566.8315200000001,-50.86799999999998 L 566.2872,-51.51599999999998 L 565.7687999999999,-52.16399999999998 L 565.2763199999999,-52.81199999999997 L 564.80976,-53.45999999999997 L 564.36912,-54.107999999999976 L 563.9544,-54.75599999999997 L 563.5655999999999,-55.403999999999975 L 563.20272,-56.05199999999998 L 562.8657599999999,-56.699999999999974 L 562.55472,-57.34799999999998 L 562.2696,-57.995999999999974 L 562.0104,-58.64399999999998 L 561.77712,-59.29199999999998 L 561.56976,-59.939999999999976 L 561.3883199999999,-60.58799999999998 L 561.2328,-61.23599999999998 L 561.1032,-61.88399999999998 L 560.9995200000001,-62.53199999999998 L 560.92176,-63.17999999999997 L 560.86992,-63.827999999999975 L 560.8439999999999,-64.47599999999997 L 560.8439999999999,-65.12399999999998 L 560.86992,-65.77199999999998 L 560.92176,-66.41999999999997 L 560.9995200000001,-67.06799999999998 L 561.1032,-67.71599999999998 L 561.2328,-68.36399999999998 L 561.3883199999999,-69.01199999999997 L 561.56976,-69.65999999999998 L 561.77712,-70.30799999999998 L 562.0104,-70.95599999999997 L 562.2696,-71.60399999999998 L 562.55472,-72.25199999999998 L 562.8657599999999,-72.89999999999998 L 563.20272,-73.54799999999999 L 563.5655999999999,-74.19599999999998 L 563.9544,-74.84399999999998 L 564.36912,-75.49199999999999 L 564.80976,-76.13999999999999 L 565.2763199999999,-76.78799999999998 L 565.7687999999999,-77.43599999999999 L 566.2872,-78.08399999999997 L 566.8315200000001,-78.73199999999999 L 567.40176,-79.37999999999997 L 567.9979199999999,-80.02799999999998 L 568.62,-80.67599999999997" style="stroke:black;fill:none;stroke-width:2;stroke-linecap:round;stroke-linejoin:round;" /><path d="M 573.4799999999999,-80.67599999999997 L 572.85792,-80.02799999999998 L 572.26176,-79.37999999999997 L 571.69152,-78.73199999999997 L 571.1472,-78.08399999999997 L 570.6288000000001,-77.43599999999998 L 570.1363200000001,-76.78799999999997 L 569.66976,-76.13999999999999 L 569.22912,-75.49199999999999 L 568.8144,-74.84399999999998 L 568.4256,-74.19599999999998 L 568.06272,-73.54799999999999 L 567.72576,-72.89999999999998 L 567.4147199999999,-72.25199999999998 L 567.1296,-71.60399999999998 L 566.8703999999999,-70.95599999999997 L 566.63712,-70.30799999999998 L 566.4297599999999,-69.65999999999998 L 566.24832,-69.01199999999997 L 566.0928,-68.36399999999998 L 565.9632,-67.71599999999998 L 565.85952,-67.06799999999998 L 565.78176,-66.41999999999997 L 565.72992,-65.77199999999998 L 565.704,-65.12399999999998 L 565.704,-64.47599999999997 L 565.72992,-63.827999999999975 L 565.78176,-63.17999999999997 L 565.85952,-62.53199999999998 L 565.9632,-61.88399999999998 L 566.0928,-61.23599999999998 L 566.24832,-60.58799999999998 L 566.4297599999999,-59.939999999999976 L 566.63712,-59.29199999999998 L 566.8703999999999,-58.64399999999998 L 567.1296,-57.995999999999974 L 567.4147199999999,-57.34799999999998 L 567.72576,-56.699999999999974 L 568.06272,-56.05199999999998 L 568.4256,-55.403999999999975 L 568.8144,-54.75599999999997 L 569.22912,-54.107999999999976 L 569.66976,-53.45999999999997 L 570.1363200000001,-52.81199999999997 L 570.6288000000001,-52.16399999999998 L 571.1472,-51.51599999999998 L 571.69152,-50.86799999999998 L 572.26176,-50.21999999999998 L 572.85792,-49.571999999999974 L 573.4799999999999,-48.92399999999998" style="stroke:black;fill:none;stroke-width:2;stroke-linecap:round;stroke-linejoin:round;" /><path d="M 584.82,-72.89999999999996 L 567.72576,-72.89999999999998" style="stroke:black;fill:none;stroke-width:2;stroke-linecap:round;stroke-linejoin:round;" /><path d="M 584.82,-56.699999999999974 L 567.72576,-56.699999999999974" style="stroke:black;fill:none;stroke-width:2;stroke-linecap:round;stroke-linejoin:round;" /><path d="M 584.82,-64.79999999999997 M 529.74,-64.79999999999998 L 518.4,-64.79999999999998" style="stroke:black;fill:none;stroke-width:2;stroke-linecap:round;stroke-linejoin:round;" /><path d="M 584.82,-56.699999999999974 L 588.06,-56.699999999999974 L 591.3,-56.699999999999974" style="stroke:black;fill:none;stroke-width:2;stroke-linecap:round;stroke-linejoin:round;" /><path d="M 591.3,-56.699999999999974 L 591.3,-28.349999999999987 L 591.3,-0.0" style="stroke:black;fill:none;stroke-width:2;stroke-linecap:round;stroke-linejoin:round;" /><path d="M 584.82,-72.89999999999996 L 601.02,-72.89999999999996 L 617.22,-72.89999999999996" style="stroke:black;fill:none;stroke-width:2;stroke-linecap:round;stroke-linejoin:round;" /><path d="M 591.3,-0.0 L 615.6,-0.0 L 639.9,-0.0" style="stroke:black;fill:none;stroke-width:2;stroke-linecap:round;stroke-linejoin:round;" /><path d="M 656.1,80.35199999999999 L 729.0,80.35199999999999 L 729.0,-16.848 L 656.1,-16.848 L 656.1,80.35199999999999" style="stroke:black;fill:none;stroke-width:2;stroke-linecap:round;stroke-linejoin:round;" /><path d="M 656.1,57.833999999999996 L 667.44,63.504 L 656.1,69.17399999999999" style="stroke:black;fill:none;stroke-width:2;stroke-linecap:round;stroke-linejoin:round;" /><path d="M 656.1,63.504 L 639.9,63.504" style="stroke:black;fill:none;stroke-width:2;stroke-linecap:round;stroke-linejoin:round;" /><path d="M 656.1,-0.0 L 639.9,-0.0" style="stroke:black;fill:none;stroke-width:2;stroke-linecap:round;stroke-linejoin:round;" /><path d="M 729.0,-0.0 L 745.1999999999999,-0.0" style="stroke:black;fill:none;stroke-width:2;stroke-linecap:round;stroke-linejoin:round;" /><path d="M 639.9,63.504 L 639.9,87.804 L 639.9,112.104" style="stroke:black;fill:none;stroke-width:2;stroke-linecap:round;stroke-linejoin:round;" /><path d="M 745.1999999999999,-0.0 L 745.1999999999999,97.19999999999999 L 745.1999999999999,194.39999999999998" style="stroke:black;fill:none;stroke-width:2;stroke-linecap:round;stroke-linejoin:round;" /><path d="M 745.1999999999999,187.92 L 745.1999999999999,187.92" style="stroke:black;fill:none;stroke-width:2;stroke-linecap:round;stroke-linejoin:round;" /><path d="M 745.1999999999999 192.39999999999998 L 742.77 187.91999999999996 L 747.6299999999999 187.91999999999996 Z" style="stroke:black;fill:black;stroke-linecap:butt;stroke-linejoin:miter;" /><path d="M 745.1999999999999,-0.0 L 769.5,-0.0 L 793.8,-0.0" style="stroke:black;fill:none;stroke-width:2;stroke-linecap:round;stroke-linejoin:round;" /><path d="M 810.0,80.35199999999999 L 882.9,80.35199999999999 L 882.9,-16.848 L 810.0,-16.848 L 810.0,80.35199999999999" style="stroke:black;fill:none;stroke-width:2;stroke-linecap:round;stroke-linejoin:round;" /><path d="M 810.0,57.833999999999996 L 821.34,63.504 L 810.0,69.17399999999999" style="stroke:black;fill:none;stroke-width:2;stroke-linecap:round;stroke-linejoin:round;" /><path d="M 810.0,63.504 L 793.8,63.504" style="stroke:black;fill:none;stroke-width:2;stroke-linecap:round;stroke-linejoin:round;" /><path d="M 810.0,-0.0 L 793.8,-0.0" style="stroke:black;fill:none;stroke-width:2;stroke-linecap:round;stroke-linejoin:round;" /><path d="M 882.9,-0.0 L 899.0999999999999,-0.0" style="stroke:black;fill:none;stroke-width:2;stroke-linecap:round;stroke-linejoin:round;" /><path d="M 793.8,63.504 L 793.8,87.804 L 793.8,112.104" style="stroke:black;fill:none;stroke-width:2;stroke-linecap:round;stroke-linejoin:round;" /><path d="M 899.0999999999999,-0.0 L 899.0999999999999,97.19999999999999 L 899.0999999999999,194.39999999999998" style="stroke:black;fill:none;stroke-width:2;stroke-linecap:round;stroke-linejoin:round;" /><path d="M 899.0999999999999,187.92 L 899.0999999999999,187.92" style="stroke:black;fill:none;stroke-width:2;stroke-linecap:round;stroke-linejoin:round;" /><path d="M 899.0999999999999 192.39999999999998 L 896.67 187.91999999999996 L 901.5299999999999 187.91999999999996 Z" style="stroke:black;fill:black;stroke-linecap:butt;stroke-linejoin:miter;" /><path d="M 617.22,-72.89999999999996 L 705.5099999999999,-72.89999999999996 L 793.8,-72.89999999999996" style="stroke:black;fill:none;stroke-width:2;stroke-linecap:round;stroke-linejoin:round;" /><path d="M 793.8,-72.89999999999996 L 810.0,-72.89999999999996 L 826.1999999999999,-72.89999999999996" style="stroke:black;fill:none;stroke-width:2;stroke-linecap:round;stroke-linejoin:round;" /><path d="M 876.42,-88.77599999999995 L 860.22,-88.77599999999997 L 859.7571428571428,-88.76938775510202 L 859.2942857142857,-88.74955102040812 L 858.8314285714285,-88.71648979591833 L 858.3685714285714,-88.67020408163263 L 857.9057142857142,-88.61069387755099 L 857.4428571428572,-88.53795918367344 L 856.9799999999999,-88.45199999999997 L 856.5171428571429,-88.35281632653059 L 856.0542857142857,-88.24040816326527 L 855.5914285714285,-88.11477551020405 L 855.1285714285714,-87.9759183673469 L 854.6657142857143,-87.82383673469384 L 854.202857142857,-87.65853061224487 L 853.74,-87.47999999999998 L 853.2771428571428,-87.28824489795915 L 852.8142857142857,-87.08326530612241 L 852.3514285714285,-86.86506122448976 L 851.8885714285715,-86.63363265306118 L 851.4257142857142,-86.3889795918367 L 850.9628571428572,-86.1311020408163 L 850.5,-85.85999999999997 L 850.0371428571428,-85.57567346938772 L 849.5742857142857,-85.27812244897956 L 849.1114285714286,-84.96734693877548 L 848.6485714285714,-84.64334693877548 L 848.1857142857143,-84.30612244897955 L 847.7228571428572,-83.95567346938772 L 847.2599999999999,-83.59199999999997 L 846.7971428571428,-83.21510204081629 L 846.3342857142858,-82.82497959183671 L 845.8714285714285,-82.4216326530612 L 845.4085714285713,-82.00506122448976 L 844.9457142857143,-81.57526530612242 L 844.482857142857,-81.13224489795915 L 844.02,-80.67599999999997 L 843.5571428571428,-80.20653061224488 L 843.0942857142857,-79.72383673469385 L 842.6314285714285,-79.2279183673469 L 842.1685714285715,-78.71877551020405 L 841.7057142857142,-78.19640816326527 L 841.2428571428571,-77.66081632653058 L 840.78,-77.11199999999997 L 840.3171428571428,-76.54995918367344 L 839.8542857142857,-75.97469387755099 L 839.3914285714286,-75.38620408163263 L 838.9285714285713,-74.78448979591833 L 838.4657142857143,-74.16955102040814 L 838.0028571428571,-73.54138775510201 L 837.54,-72.89999999999996 L 837.54,-72.89999999999996 L 838.0028571428571,-72.25861224489793 L 838.4657142857143,-71.6304489795918 L 838.9285714285713,-71.01551020408161 L 839.3914285714286,-70.41379591836731 L 839.8542857142857,-69.82530612244895 L 840.3171428571428,-69.2500408163265 L 840.78,-68.68799999999997 L 841.2428571428571,-68.13918367346936 L 841.7057142857142,-67.60359183673467 L 842.1685714285715,-67.08122448979587 L 842.6314285714285,-66.57208163265302 L 843.0942857142857,-66.07616326530608 L 843.5571428571428,-65.59346938775506 L 844.02,-65.12399999999997 L 844.482857142857,-64.66775510204079 L 844.9457142857143,-64.22473469387752 L 845.4085714285713,-63.79493877551017 L 845.8714285714285,-63.37836734693874 L 846.3342857142858,-62.975020408163225 L 846.7971428571428,-62.58489795918364 L 847.2599999999999,-62.20799999999996 L 847.7228571428572,-61.84432653061221 L 848.1857142857143,-61.493877551020375 L 848.6485714285714,-61.156653061224446 L 849.1114285714286,-60.832653061224455 L 849.5742857142857,-60.521877551020374 L 850.0371428571428,-60.22432653061221 L 850.5,-59.93999999999996 L 850.9628571428572,-59.66889795918364 L 851.4257142857142,-59.41102040816323 L 851.8885714285715,-59.166367346938735 L 852.3514285714285,-58.93493877551016 L 852.8142857142857,-58.71673469387751 L 853.2771428571428,-58.51175510204078 L 853.74,-58.319999999999965 L 854.202857142857,-58.141469387755066 L 854.6657142857143,-57.976163265306084 L 855.1285714285714,-57.82408163265302 L 855.5914285714285,-57.68522448979588 L 856.0542857142857,-57.559591836734654 L 856.5171428571429,-57.44718367346935 L 856.9799999999999,-57.34799999999996 L 857.4428571428572,-57.2620408163265 L 857.9057142857142,-57.18930612244894 L 858.3685714285714,-57.12979591836731 L 858.8314285714285,-57.0835102040816 L 859.2942857142857,-57.0504489795918 L 859.7571428571428,-57.030612244897924 L 860.22,-57.02399999999996 L 876.42,-57.02399999999996 L 876.42,-57.02399999999996 L 875.79792,-57.67199999999996 L 875.2017599999999,-58.319999999999965 L 874.63152,-58.96799999999996 L 874.0872,-59.615999999999964 L 873.5688,-60.26399999999997 L 873.0763199999999,-60.911999999999956 L 872.60976,-61.55999999999996 L 872.16912,-62.207999999999956 L 871.7543999999999,-62.85599999999996 L 871.3655999999999,-63.50399999999996 L 871.00272,-64.15199999999996 L 870.66576,-64.79999999999995 L 870.3547199999999,-65.44799999999995 L 870.0695999999999,-66.09599999999996 L 869.8104,-66.74399999999996 L 869.5771199999999,-67.39199999999995 L 869.3697599999999,-68.03999999999996 L 869.1883199999999,-68.68799999999996 L 869.0328,-69.33599999999996 L 868.9032,-69.98399999999995 L 868.79952,-70.63199999999996 L 868.72176,-71.27999999999996 L 868.6699199999999,-71.92799999999995 L 868.6439999999999,-72.57599999999996 L 868.6439999999999,-73.22399999999996 L 868.6699199999999,-73.87199999999996 L 868.72176,-74.51999999999997 L 868.79952,-75.16799999999996 L 868.9032,-75.81599999999996 L 869.0328,-76.46399999999997 L 869.1883199999999,-77.11199999999997 L 869.3697599999999,-77.75999999999996 L 869.5771199999999,-78.40799999999996 L 869.8104,-79.05599999999997 L 870.0695999999999,-79.70399999999997 L 870.3547199999999,-80.35199999999996 L 870.66576,-80.99999999999997 L 871.00272,-81.64799999999997 L 871.3655999999999,-82.29599999999996 L 871.7543999999999,-82.94399999999997 L 872.16912,-83.59199999999997 L 872.60976,-84.23999999999997 L 873.0763199999999,-84.88799999999998 L 873.5688,-85.53599999999996 L 874.0872,-86.18399999999997 L 874.63152,-86.83199999999997 L 875.2017599999999,-87.47999999999996 L 875.79792,-88.12799999999996 L 876.42,-88.77599999999995" style="stroke:black;fill:none;stroke-width:2;stroke-linecap:round;stroke-linejoin:round;" /><path d="M 881.28,-88.77599999999995 L 880.65792,-88.12799999999996 L 880.06176,-87.47999999999996 L 879.4915199999999,-86.83199999999997 L 878.9472,-86.18399999999995 L 878.4288,-85.53599999999996 L 877.93632,-84.88799999999998 L 877.46976,-84.23999999999997 L 877.0291199999999,-83.59199999999997 L 876.6144,-82.94399999999997 L 876.2256,-82.29599999999996 L 875.86272,-81.64799999999997 L 875.52576,-80.99999999999997 L 875.2147199999999,-80.35199999999996 L 874.9296,-79.70399999999997 L 874.6704,-79.05599999999997 L 874.43712,-78.40799999999996 L 874.2297599999999,-77.75999999999996 L 874.04832,-77.11199999999997 L 873.8928,-76.46399999999997 L 873.7632,-75.81599999999996 L 873.6595199999999,-75.16799999999996 L 873.5817599999999,-74.51999999999997 L 873.52992,-73.87199999999996 L 873.504,-73.22399999999996 L 873.504,-72.57599999999996 L 873.52992,-71.92799999999995 L 873.5817599999999,-71.27999999999996 L 873.6595199999999,-70.63199999999996 L 873.7632,-69.98399999999995 L 873.8928,-69.33599999999996 L 874.04832,-68.68799999999996 L 874.2297599999999,-68.03999999999996 L 874.43712,-67.39199999999995 L 874.6704,-66.74399999999996 L 874.9296,-66.09599999999996 L 875.2147199999999,-65.44799999999995 L 875.52576,-64.79999999999995 L 875.86272,-64.15199999999996 L 876.2256,-63.50399999999996 L 876.6144,-62.85599999999996 L 877.0291199999999,-62.207999999999956 L 877.46976,-61.55999999999996 L 877.93632,-60.911999999999956 L 878.4288,-60.26399999999997 L 878.9472,-59.615999999999964 L 879.4915199999999,-58.96799999999996 L 880.06176,-58.319999999999965 L 880.65792,-57.67199999999996 L 881.28,-57.02399999999996" style="stroke:black;fill:none;stroke-width:2;stroke-linecap:round;stroke-linejoin:round;" /><path d="M 892.62,-80.99999999999996 L 875.52576,-80.99999999999997" style="stroke:black;fill:none;stroke-width:2;stroke-linecap:round;stroke-linejoin:round;" /><path d="M 892.62,-64.79999999999995 L 875.52576,-64.79999999999995" style="stroke:black;fill:none;stroke-width:2;stroke-linecap:round;stroke-linejoin:round;" /><path d="M 892.62,-72.89999999999995 M 837.54,-72.89999999999996 L 826.1999999999999,-72.89999999999996" style="stroke:black;fill:none;stroke-width:2;stroke-linecap:round;stroke-linejoin:round;" /><path d="M 892.62,-64.79999999999995 L 895.8599999999999,-64.79999999999995 L 899.0999999999999,-64.79999999999995" style="stroke:black;fill:none;stroke-width:2;stroke-linecap:round;stroke-linejoin:round;" /><path d="M 899.0999999999999,-64.79999999999995 L 899.0999999999999,-32.39999999999998 L 899.0999999999999,-0.0" style="stroke:black;fill:none;stroke-width:2;stroke-linecap:round;stroke-linejoin:round;" /><path d="M 892.62,-80.99999999999996 L 908.8199999999999,-80.99999999999996 L 925.02,-80.99999999999996" style="stroke:black;fill:none;stroke-width:2;stroke-linecap:round;stroke-linejoin:round;" /><path d="M 899.0999999999999,-0.0 L 923.4,-0.0 L 947.6999999999999,-0.0" style="stroke:black;fill:none;stroke-width:2;stroke-linecap:round;stroke-linejoin:round;" /><path d="M 963.9,80.35199999999999 L 1036.8,80.35199999999999 L 1036.8,-16.848 L 963.9,-16.848 L 963.9,80.35199999999999" style="stroke:black;fill:none;stroke-width:2;stroke-linecap:round;stroke-linejoin:round;" /><path d="M 963.9,57.833999999999996 L 975.24,63.504 L 963.9,69.17399999999999" style="stroke:black;fill:none;stroke-width:2;stroke-linecap:round;stroke-linejoin:round;" /><path d="M 963.9,63.504 L 947.6999999999999,63.504" style="stroke:black;fill:none;stroke-width:2;stroke-linecap:round;stroke-linejoin:round;" /><path d="M 963.9,-0.0 L 947.6999999999999,-0.0" style="stroke:black;fill:none;stroke-width:2;stroke-linecap:round;stroke-linejoin:round;" /><path d="M 1036.8,-0.0 L 1053.0,-0.0" style="stroke:black;fill:none;stroke-width:2;stroke-linecap:round;stroke-linejoin:round;" /><path d="M 947.6999999999999,63.504 L 947.6999999999999,87.804 L 947.6999999999999,112.104" style="stroke:black;fill:none;stroke-width:2;stroke-linecap:round;stroke-linejoin:round;" /><path d="M 1053.0,-0.0 L 1053.0,97.19999999999999 L 1053.0,194.39999999999998" style="stroke:black;fill:none;stroke-width:2;stroke-linecap:round;stroke-linejoin:round;" /><path d="M 1053.0,187.92 L 1053.0,187.92" style="stroke:black;fill:none;stroke-width:2;stroke-linecap:round;stroke-linejoin:round;" /><path d="M 1053.0 192.39999999999998 L 1050.57 187.91999999999996 L 1055.43 187.91999999999996 Z" style="stroke:black;fill:black;stroke-linecap:butt;stroke-linejoin:miter;" /><path d="M 925.02,-80.99999999999996 L 936.3599999999999,-80.99999999999996 L 947.6999999999999,-80.99999999999996" style="stroke:black;fill:none;stroke-width:2;stroke-linecap:round;stroke-linejoin:round;" /><path d="M 947.6999999999999,-80.99999999999996 L 963.9,-80.99999999999996 L 980.0999999999999,-80.99999999999996" style="stroke:black;fill:none;stroke-width:2;stroke-linecap:round;stroke-linejoin:round;" /><path d="M 1030.32,-96.87599999999995 L 1014.12,-96.87599999999995 L 1013.6571428571427,-96.869387755102 L 1013.1942857142857,-96.84955102040813 L 1012.7314285714285,-96.81648979591833 L 1012.2685714285714,-96.77020408163261 L 1011.8057142857142,-96.71069387755098 L 1011.3428571428572,-96.63795918367343 L 1010.8799999999999,-96.55199999999995 L 1010.4171428571428,-96.45281632653057 L 1009.9542857142857,-96.34040816326525 L 1009.4914285714285,-96.21477551020403 L 1009.0285714285714,-96.07591836734689 L 1008.5657142857143,-95.92383673469382 L 1008.102857142857,-95.75853061224485 L 1007.64,-95.57999999999994 L 1007.1771428571428,-95.38824489795914 L 1006.7142857142857,-95.18326530612241 L 1006.2514285714285,-94.96506122448974 L 1005.7885714285715,-94.73363265306118 L 1005.3257142857142,-94.4889795918367 L 1004.8628571428571,-94.23110204081628 L 1004.4,-93.95999999999995 L 1003.9371428571428,-93.6756734693877 L 1003.4742857142857,-93.37812244897955 L 1003.0114285714286,-93.06734693877547 L 1002.5485714285713,-92.74334693877546 L 1002.0857142857143,-92.40612244897954 L 1001.6228571428571,-92.05567346938771 L 1001.1599999999999,-91.69199999999995 L 1000.6971428571428,-91.31510204081627 L 1000.2342857142858,-90.92497959183667 L 999.7714285714286,-90.52163265306118 L 999.3085714285713,-90.10506122448975 L 998.8457142857143,-89.6752653061224 L 998.3828571428571,-89.23224489795913 L 997.92,-88.77599999999995 L 997.4571428571428,-88.30653061224486 L 996.9942857142858,-87.82383673469383 L 996.5314285714285,-87.32791836734688 L 996.0685714285714,-86.81877551020403 L 995.6057142857143,-86.29640816326526 L 995.1428571428571,-85.76081632653056 L 994.68,-85.21199999999995 L 994.2171428571429,-84.64995918367342 L 993.7542857142856,-84.07469387755097 L 993.2914285714286,-83.48620408163261 L 992.8285714285714,-82.88448979591831 L 992.3657142857143,-82.26955102040812 L 991.9028571428571,-81.64138775510199 L 991.44,-80.99999999999996 L 991.44,-80.99999999999996 L 991.9028571428571,-80.35861224489791 L 992.3657142857143,-79.73044897959178 L 992.8285714285714,-79.11551020408159 L 993.2914285714286,-78.5137959183673 L 993.7542857142856,-77.92530612244893 L 994.2171428571429,-77.35004081632648 L 994.68,-76.78799999999995 L 995.1428571428571,-76.23918367346934 L 995.6057142857143,-75.70359183673463 L 996.0685714285714,-75.18122448979588 L 996.5314285714285,-74.672081632653 L 996.9942857142858,-74.17616326530607 L 997.4571428571428,-73.69346938775504 L 997.92,-73.22399999999995 L 998.3828571428571,-72.76775510204077 L 998.8457142857143,-72.3247346938775 L 999.3085714285713,-71.89493877551016 L 999.7714285714286,-71.47836734693873 L 1000.2342857142858,-71.07502040816321 L 1000.6971428571428,-70.68489795918362 L 1001.1599999999999,-70.30799999999995 L 1001.6228571428571,-69.9443265306122 L 1002.0857142857143,-69.59387755102036 L 1002.5485714285713,-69.25665306122443 L 1003.0114285714286,-68.93265306122444 L 1003.4742857142857,-68.62187755102036 L 1003.9371428571428,-68.32432653061218 L 1004.4,-68.03999999999995 L 1004.8628571428571,-67.76889795918362 L 1005.3257142857142,-67.51102040816322 L 1005.7885714285715,-67.26636734693872 L 1006.2514285714285,-67.03493877551014 L 1006.7142857142857,-66.8167346938775 L 1007.1771428571428,-66.61175510204076 L 1007.64,-66.41999999999994 L 1008.102857142857,-66.24146938775505 L 1008.5657142857143,-66.07616326530606 L 1009.0285714285714,-65.92408163265301 L 1009.4914285714285,-65.78522448979588 L 1009.9542857142857,-65.65959183673463 L 1010.4171428571428,-65.54718367346933 L 1010.8799999999999,-65.44799999999995 L 1011.3428571428572,-65.36204081632648 L 1011.8057142857142,-65.28930612244893 L 1012.2685714285714,-65.2297959183673 L 1012.7314285714285,-65.18351020408159 L 1013.1942857142857,-65.15044897959179 L 1013.6571428571427,-65.1306122448979 L 1014.12,-65.12399999999995 L 1030.32,-65.12399999999995 L 1030.32,-65.12399999999995 L 1029.6979199999998,-65.77199999999995 L 1029.10176,-66.41999999999994 L 1028.53152,-67.06799999999996 L 1027.9872,-67.71599999999995 L 1027.4687999999999,-68.36399999999995 L 1026.97632,-69.01199999999994 L 1026.50976,-69.65999999999995 L 1026.0691199999999,-70.30799999999995 L 1025.6544,-70.95599999999995 L 1025.2656,-71.60399999999996 L 1024.90272,-72.25199999999995 L 1024.56576,-72.89999999999995 L 1024.25472,-73.54799999999994 L 1023.9695999999999,-74.19599999999994 L 1023.7103999999999,-74.84399999999994 L 1023.4771199999999,-75.49199999999995 L 1023.2697599999999,-76.13999999999994 L 1023.08832,-76.78799999999994 L 1022.9327999999999,-77.43599999999994 L 1022.8032,-78.08399999999995 L 1022.69952,-78.73199999999994 L 1022.62176,-79.37999999999994 L 1022.56992,-80.02799999999995 L 1022.5439999999999,-80.67599999999995 L 1022.5439999999999,-81.32399999999994 L 1022.56992,-81.97199999999995 L 1022.62176,-82.61999999999995 L 1022.69952,-83.26799999999994 L 1022.8032,-83.91599999999995 L 1022.9327999999999,-84.56399999999995 L 1023.08832,-85.21199999999995 L 1023.2697599999999,-85.85999999999996 L 1023.4771199999999,-86.50799999999995 L 1023.7103999999999,-87.15599999999995 L 1023.9695999999999,-87.80399999999995 L 1024.25472,-88.45199999999996 L 1024.56576,-89.09999999999995 L 1024.90272,-89.74799999999995 L 1025.2656,-90.39599999999996 L 1025.6544,-91.04399999999995 L 1026.0691199999999,-91.69199999999995 L 1026.50976,-92.33999999999996 L 1026.97632,-92.98799999999996 L 1027.4687999999999,-93.63599999999995 L 1027.9872,-94.28399999999995 L 1028.53152,-94.93199999999996 L 1029.10176,-95.57999999999994 L 1029.6979199999998,-96.22799999999994 L 1030.32,-96.87599999999995" style="stroke:black;fill:none;stroke-width:2;stroke-linecap:round;stroke-linejoin:round;" /><path d="M 1035.1799999999998,-96.87599999999995 L 1034.55792,-96.22799999999994 L 1033.96176,-95.57999999999994 L 1033.39152,-94.93199999999995 L 1032.8472,-94.28399999999995 L 1032.3288,-93.63599999999994 L 1031.8363200000001,-92.98799999999994 L 1031.36976,-92.33999999999996 L 1030.92912,-91.69199999999995 L 1030.5144,-91.04399999999995 L 1030.1256,-90.39599999999996 L 1029.76272,-89.74799999999995 L 1029.42576,-89.09999999999995 L 1029.1147199999998,-88.45199999999996 L 1028.8296,-87.80399999999995 L 1028.5703999999998,-87.15599999999995 L 1028.33712,-86.50799999999995 L 1028.1297599999998,-85.85999999999996 L 1027.94832,-85.21199999999995 L 1027.7928,-84.56399999999995 L 1027.6632,-83.91599999999995 L 1027.55952,-83.26799999999994 L 1027.48176,-82.61999999999995 L 1027.4299199999998,-81.97199999999995 L 1027.404,-81.32399999999994 L 1027.404,-80.67599999999995 L 1027.4299199999998,-80.02799999999995 L 1027.48176,-79.37999999999994 L 1027.55952,-78.73199999999994 L 1027.6632,-78.08399999999995 L 1027.7928,-77.43599999999994 L 1027.94832,-76.78799999999994 L 1028.1297599999998,-76.13999999999994 L 1028.33712,-75.49199999999995 L 1028.5703999999998,-74.84399999999994 L 1028.8296,-74.19599999999994 L 1029.1147199999998,-73.54799999999994 L 1029.42576,-72.89999999999995 L 1029.76272,-72.25199999999995 L 1030.1256,-71.60399999999996 L 1030.5144,-70.95599999999995 L 1030.92912,-70.30799999999995 L 1031.36976,-69.65999999999995 L 1031.8363200000001,-69.01199999999993 L 1032.3288,-68.36399999999995 L 1032.8472,-67.71599999999995 L 1033.39152,-67.06799999999996 L 1033.96176,-66.41999999999994 L 1034.55792,-65.77199999999995 L 1035.1799999999998,-65.12399999999995" style="stroke:black;fill:none;stroke-width:2;stroke-linecap:round;stroke-linejoin:round;" /><path d="M 1046.5199999999998,-89.09999999999994 L 1029.42576,-89.09999999999995" style="stroke:black;fill:none;stroke-width:2;stroke-linecap:round;stroke-linejoin:round;" /><path d="M 1046.5199999999998,-72.89999999999993 L 1029.42576,-72.89999999999995" style="stroke:black;fill:none;stroke-width:2;stroke-linecap:round;stroke-linejoin:round;" /><path d="M 1046.5199999999998,-80.99999999999994 M 991.44,-80.99999999999996 L 980.0999999999999,-80.99999999999996" style="stroke:black;fill:none;stroke-width:2;stroke-linecap:round;stroke-linejoin:round;" /><path d="M 1046.5199999999998,-72.89999999999993 L 1049.76,-72.89999999999993 L 1053.0,-72.89999999999993" style="stroke:black;fill:none;stroke-width:2;stroke-linecap:round;stroke-linejoin:round;" /><path d="M 1053.0,-72.89999999999993 L 1053.0,-36.44999999999997 L 1053.0,-0.0" style="stroke:black;fill:none;stroke-width:2;stroke-linecap:round;stroke-linejoin:round;" /><path d="M 1046.5199999999998,-89.09999999999994 L 1062.7199999999998,-89.09999999999994 L 1078.9199999999998,-89.09999999999994" style="stroke:black;fill:none;stroke-width:2;stroke-linecap:round;stroke-linejoin:round;" /><path d="M 1053.0,-0.0 L 1077.3,-0.0 L 1101.6,-0.0" style="stroke:black;fill:none;stroke-width:2;stroke-linecap:round;stroke-linejoin:round;" /><path d="M 1117.8,80.35199999999999 L 1190.7,80.35199999999999 L 1190.7,-16.848 L 1117.8,-16.848 L 1117.8,80.35199999999999" style="stroke:black;fill:none;stroke-width:2;stroke-linecap:round;stroke-linejoin:round;" /><path d="M 1117.8,57.833999999999996 L 1129.14,63.504 L 1117.8,69.17399999999999" style="stroke:black;fill:none;stroke-width:2;stroke-linecap:round;stroke-linejoin:round;" /><path d="M 1117.8,63.504 L 1101.6,63.504" style="stroke:black;fill:none;stroke-width:2;stroke-linecap:round;stroke-linejoin:round;" /><path d="M 1117.8,-0.0 L 1101.6,-0.0" style="stroke:black;fill:none;stroke-width:2;stroke-linecap:round;stroke-linejoin:round;" /><path d="M 1190.7,-0.0 L 1206.8999999999999,-0.0" style="stroke:black;fill:none;stroke-width:2;stroke-linecap:round;stroke-linejoin:round;" /><path d="M 1101.6,63.504 L 1101.6,87.804 L 1101.6,112.104" style="stroke:black;fill:none;stroke-width:2;stroke-linecap:round;stroke-linejoin:round;" /><path d="M 1206.8999999999999,-0.0 L 1206.8999999999999,97.19999999999999 L 1206.8999999999999,194.39999999999998" style="stroke:black;fill:none;stroke-width:2;stroke-linecap:round;stroke-linejoin:round;" /><path d="M 1206.8999999999999,187.92 L 1206.8999999999999,187.92" style="stroke:black;fill:none;stroke-width:2;stroke-linecap:round;stroke-linejoin:round;" /><path d="M 1206.8999999999999 192.39999999999998 L 1204.4699999999998 187.91999999999996 L 1209.33 187.91999999999996 Z" style="stroke:black;fill:black;stroke-linecap:butt;stroke-linejoin:miter;" /><path d="M 1206.8999999999999,-0.0 L 1231.2,-0.0 L 1255.5,-0.0" style="stroke:black;fill:none;stroke-width:2;stroke-linecap:round;stroke-linejoin:round;" /><path d="M 1271.7,80.35199999999999 L 1344.6,80.35199999999999 L 1344.6,-16.848 L 1271.7,-16.848 L 1271.7,80.35199999999999" style="stroke:black;fill:none;stroke-width:2;stroke-linecap:round;stroke-linejoin:round;" /><path d="M 1271.7,57.833999999999996 L 1283.04,63.504 L 1271.7,69.17399999999999" style="stroke:black;fill:none;stroke-width:2;stroke-linecap:round;stroke-linejoin:round;" /><path d="M 1271.7,63.504 L 1255.5,63.504" style="stroke:black;fill:none;stroke-width:2;stroke-linecap:round;stroke-linejoin:round;" /><path d="M 1271.7,-0.0 L 1255.5,-0.0" style="stroke:black;fill:none;stroke-width:2;stroke-linecap:round;stroke-linejoin:round;" /><path d="M 1344.6,-0.0 L 1360.8,-0.0" style="stroke:black;fill:none;stroke-width:2;stroke-linecap:round;stroke-linejoin:round;" /><path d="M 1255.5,63.504 L 1255.5,87.804 L 1255.5,112.104" style="stroke:black;fill:none;stroke-width:2;stroke-linecap:round;stroke-linejoin:round;" /><path d="M 1255.5,112.104 L 639.9,112.10399999999993 L 24.299999999999997,112.10399999999986" style="stroke:black;fill:none;stroke-width:2;stroke-linecap:round;stroke-linejoin:round;" /><path d="M 1360.8,-0.0 L 1360.8,97.19999999999999 L 1360.8,194.39999999999998" style="stroke:black;fill:none;stroke-width:2;stroke-linecap:round;stroke-linejoin:round;" /><path d="M 1360.8,187.92 L 1360.8,187.92" style="stroke:black;fill:none;stroke-width:2;stroke-linecap:round;stroke-linejoin:round;" /><path d="M 1360.8 192.39999999999998 L 1358.37 187.91999999999996 L 1363.23 187.91999999999996 Z" style="stroke:black;fill:black;stroke-linecap:butt;stroke-linejoin:miter;" /><path d="M 1360.8,-0.0 L 1372.95,-0.0 L 1385.1,-0.0" style="stroke:black;fill:none;stroke-width:2;stroke-linecap:round;stroke-linejoin:round;" /><path d="M 1385.1,-0.0 L 1385.1,-44.54999999999997 L 1385.1,-89.09999999999994" style="stroke:black;fill:none;stroke-width:2;stroke-linecap:round;stroke-linejoin:round;" /><path d="M 1385.1,-89.09999999999994 L 1232.01,-89.09999999999995 L 1078.9199999999998,-89.09999999999998" style="stroke:black;fill:none;stroke-width:2;stroke-linecap:round;stroke-linejoin:round;" /><text x="45.35999999999999" y="-6.050000000000001" fill="black" font-size="11" font-family="sans-serif" text-anchor="start" transform="rotate(0 45.35999999999999 -1.6500000000000001)"><tspan x="45.35999999999999" dy="8.8">D</tspan></text><text x="108.53999999999999" y="-6.050000000000001" fill="black" font-size="11" font-family="sans-serif" text-anchor="end" transform="rotate(0 108.53999999999999 -1.6500000000000001)"><tspan x="108.53999999999999" dy="8.8">Q</tspan></text><text x="-27.54000000000001" y="104.40399999999998" fill="black" font-size="14" font-family="sans-serif" text-anchor="end" transform="rotate(0 -27.54000000000001 110.00399999999999)"><tspan x="-27.54000000000001" dy="11.200000000000001">clk</tspan></text><text x="129.59999999999997" y="200.39999999999998" fill="black" font-size="14" font-family="sans-serif" text-anchor="middle" transform="rotate(0 129.59999999999997 200.39999999999998)"><tspan x="129.59999999999997" dy="11.200000000000001">q[0]</tspan></text><text x="199.26" y="-6.050000000000001" fill="black" font-size="11" font-family="sans-serif" text-anchor="start" transform="rotate(0 199.26 -1.6500000000000001)"><tspan x="199.26" dy="8.8">D</tspan></text><text x="262.44" y="-6.050000000000001" fill="black" font-size="11" font-family="sans-serif" text-anchor="end" transform="rotate(0 262.44 -1.6500000000000001)"><tspan x="262.44" dy="8.8">Q</tspan></text><text x="283.49999999999994" y="200.39999999999998" fill="black" font-size="14" font-family="sans-serif" text-anchor="middle" transform="rotate(0 283.49999999999994 200.39999999999998)"><tspan x="283.49999999999994" dy="11.200000000000001">q[1]</tspan></text><text x="353.15999999999997" y="-6.050000000000001" fill="black" font-size="11" font-family="sans-serif" text-anchor="start" transform="rotate(0 353.15999999999997 -1.6500000000000001)"><tspan x="353.15999999999997" dy="8.8">D</tspan></text><text x="416.34" y="-6.050000000000001" fill="black" font-size="11" font-family="sans-serif" text-anchor="end" transform="rotate(0 416.34 -1.6500000000000001)"><tspan x="416.34" dy="8.8">Q</tspan></text><text x="437.3999999999999" y="200.39999999999998" fill="black" font-size="14" font-family="sans-serif" text-anchor="middle" transform="rotate(0 437.3999999999999 200.39999999999998)"><tspan x="437.3999999999999" dy="11.200000000000001">q[2]</tspan></text><text x="507.06" y="-6.050000000000001" fill="black" font-size="11" font-family="sans-serif" text-anchor="start" transform="rotate(0 507.06 -1.6500000000000001)"><tspan x="507.06" dy="8.8">D</tspan></text><text x="570.24" y="-6.050000000000001" fill="black" font-size="11" font-family="sans-serif" text-anchor="end" transform="rotate(0 570.24 -1.6500000000000001)"><tspan x="570.24" dy="8.8">Q</tspan></text><text x="591.3" y="200.39999999999998" fill="black" font-size="14" font-family="sans-serif" text-anchor="middle" transform="rotate(0 591.3 200.39999999999998)"><tspan x="591.3" dy="11.200000000000001">q[3]</tspan></text><text x="660.9599999999999" y="-6.050000000000001" fill="black" font-size="11" font-family="sans-serif" text-anchor="start" transform="rotate(0 660.9599999999999 -1.6500000000000001)"><tspan x="660.9599999999999" dy="8.8">D</tspan></text><text x="724.14" y="-6.050000000000001" fill="black" font-size="11" font-family="sans-serif" text-anchor="end" transform="rotate(0 724.14 -1.6500000000000001)"><tspan x="724.14" dy="8.8">Q</tspan></text><text x="745.1999999999999" y="200.39999999999998" fill="black" font-size="14" font-family="sans-serif" text-anchor="middle" transform="rotate(0 745.1999999999999 200.39999999999998)"><tspan x="745.1999999999999" dy="11.200000000000001">q[4]</tspan></text><text x="814.8599999999999" y="-6.050000000000001" fill="black" font-size="11" font-family="sans-serif" text-anchor="start" transform="rotate(0 814.8599999999999 -1.6500000000000001)"><tspan x="814.8599999999999" dy="8.8">D</tspan></text><text x="878.04" y="-6.050000000000001" fill="black" font-size="11" font-family="sans-serif" text-anchor="end" transform="rotate(0 878.04 -1.6500000000000001)"><tspan x="878.04" dy="8.8">Q</tspan></text><text x="899.0999999999999" y="200.39999999999998" fill="black" font-size="14" font-family="sans-serif" text-anchor="middle" transform="rotate(0 899.0999999999999 200.39999999999998)"><tspan x="899.0999999999999" dy="11.200000000000001">q[5]</tspan></text><text x="968.7599999999999" y="-6.050000000000001" fill="black" font-size="11" font-family="sans-serif" text-anchor="start" transform="rotate(0 968.7599999999999 -1.6500000000000001)"><tspan x="968.7599999999999" dy="8.8">D</tspan></text><text x="1031.94" y="-6.050000000000001" fill="black" font-size="11" font-family="sans-serif" text-anchor="end" transform="rotate(0 1031.94 -1.6500000000000001)"><tspan x="1031.94" dy="8.8">Q</tspan></text><text x="1053.0" y="200.39999999999998" fill="black" font-size="14" font-family="sans-serif" text-anchor="middle" transform="rotate(0 1053.0 200.39999999999998)"><tspan x="1053.0" dy="11.200000000000001">q[6]</tspan></text><text x="1122.6599999999999" y="-6.050000000000001" fill="black" font-size="11" font-family="sans-serif" text-anchor="start" transform="rotate(0 1122.6599999999999 -1.6500000000000001)"><tspan x="1122.6599999999999" dy="8.8">D</tspan></text><text x="1185.84" y="-6.050000000000001" fill="black" font-size="11" font-family="sans-serif" text-anchor="end" transform="rotate(0 1185.84 -1.6500000000000001)"><tspan x="1185.84" dy="8.8">Q</tspan></text><text x="1206.8999999999999" y="200.39999999999998" fill="black" font-size="14" font-family="sans-serif" text-anchor="middle" transform="rotate(0 1206.8999999999999 200.39999999999998)"><tspan x="1206.8999999999999" dy="11.200000000000001">q[7]</tspan></text><text x="1276.56" y="-6.050000000000001" fill="black" font-size="11" font-family="sans-serif" text-anchor="start" transform="rotate(0 1276.56 -1.6500000000000001)"><tspan x="1276.56" dy="8.8">D</tspan></text><text x="1339.74" y="-6.050000000000001" fill="black" font-size="11" font-family="sans-serif" text-anchor="end" transform="rotate(0 1339.74 -1.6500000000000001)"><tspan x="1339.74" dy="8.8">Q</tspan></text><text x="1360.8" y="200.39999999999998" fill="black" font-size="14" font-family="sans-serif" text-anchor="middle" transform="rotate(0 1360.8 200.39999999999998)"><tspan x="1360.8" dy="11.200000000000001">q[8]</tspan></text><circle cx="24.29999999999999" cy="112.104" r="2.4299999999999997" style="stroke:black;fill:black;stroke-width:2;" /><circle cx="129.6" cy="-0.0" r="2.4299999999999997" style="stroke:black;fill:black;stroke-width:2;" /><circle cx="178.2" cy="112.104" r="2.4299999999999997" style="stroke:black;fill:black;stroke-width:2;" /><circle cx="283.5" cy="-0.0" r="2.4299999999999997" style="stroke:black;fill:black;stroke-width:2;" /><circle cx="332.09999999999997" cy="112.104" r="2.4299999999999997" style="stroke:black;fill:black;stroke-width:2;" /><circle cx="437.4" cy="-0.0" r="2.4299999999999997" style="stroke:black;fill:black;stroke-width:2;" /><circle cx="486.0" cy="112.104" r="2.4299999999999997" style="stroke:black;fill:black;stroke-width:2;" /><circle cx="591.3" cy="-0.0" r="2.4299999999999997" style="stroke:black;fill:black;stroke-width:2;" /><circle cx="639.9" cy="112.104" r="2.4299999999999997" style="stroke:black;fill:black;stroke-width:2;" /><circle cx="745.1999999999999" cy="-0.0" r="2.4299999999999997" style="stroke:black;fill:black;stroke-width:2;" /><circle cx="793.8" cy="112.104" r="2.4299999999999997" style="stroke:black;fill:black;stroke-width:2;" /><circle cx="899.0999999999999" cy="-0.0" r="2.4299999999999997" style="stroke:black;fill:black;stroke-width:2;" /><circle cx="947.6999999999999" cy="112.104" r="2.4299999999999997" style="stroke:black;fill:black;stroke-width:2;" /><circle cx="1053.0" cy="-0.0" r="2.4299999999999997" style="stroke:black;fill:black;stroke-width:2;" /><circle cx="1101.6" cy="112.104" r="2.4299999999999997" style="stroke:black;fill:black;stroke-width:2;" /><circle cx="1206.8999999999999" cy="-0.0" r="2.4299999999999997" style="stroke:black;fill:black;stroke-width:2;" /><circle cx="24.299999999999997" cy="112.10399999999986" r="2.4299999999999997" style="stroke:black;fill:black;stroke-width:2;" /><circle cx="1360.8" cy="-0.0" r="2.4299999999999997" style="stroke:black;fill:black;stroke-width:2;" /></svg>